Hanif_Medium_5_0_grf.mot
version=1
nRows=64
nColumns=19
inDegrees=yes
endheader
time	right_ground_force_vx	right_ground_force_vy	right_ground_force_vz	right_ground_force_px	right_ground_force_py	right_ground_force_pz	right_ground_torque_x	right_ground_torque_y	right_ground_torque_z	left_ground_force_vx	left_ground_force_vy	left_ground_force_vz	left_ground_force_px	left_ground_force_py	left_ground_force_pz	left_ground_torque_x	left_ground_torque_y	left_ground_torque_z
5.775000	-8.632340	318.188000	34.236400	0.233519	0.000000	-1.417250	-28.278900	-0.405463	10.827600	6.265810	331.007000	-41.685000	0.234402	0.000000	-0.988185	28.077600	-5.392760	12.180000
5.780000	-8.470170	318.391000	33.596700	0.233355	0.000000	-1.417580	-28.195500	-0.292719	10.786300	6.172050	331.865000	-41.299000	0.235188	0.000000	-0.987982	28.086700	-5.304960	12.453600
5.785000	-7.778740	318.855000	33.141000	0.232618	0.000000	-1.417130	-28.375800	-0.115662	10.572500	6.011220	333.664000	-41.069400	0.235126	0.000000	-0.987439	28.062100	-5.296960	12.487500
5.790000	-7.669570	321.796000	32.372600	0.232468	0.000000	-1.418590	-28.166800	-0.080573	10.613000	6.046410	333.249000	-40.795400	0.235375	0.000000	-0.987705	28.114000	-5.339700	12.556300
5.795000	-7.684020	321.437000	32.012100	0.231441	0.000000	-1.418270	-28.239500	-0.053693	10.268500	5.452890	333.662000	-40.024600	0.236083	0.000000	-0.988228	28.333800	-5.361900	12.800400
5.800000	-7.493570	318.714000	31.785300	0.231324	0.000000	-1.418130	-28.048000	0.092196	10.157700	5.342410	336.194000	-39.174600	0.235635	0.000000	-0.987386	28.270700	-5.316990	12.709900
5.805000	-7.494560	316.817000	31.365800	0.230785	0.000000	-1.418370	-27.802900	0.095357	9.923120	4.962710	334.700000	-38.740100	0.236087	0.000000	-0.988140	28.404100	-5.250080	12.798900
5.810000	-8.034230	316.465000	31.283000	0.229654	0.000000	-1.418870	-27.619200	0.150400	9.560140	4.411280	335.865000	-38.543300	0.235765	0.000000	-0.987998	28.465700	-5.256650	12.730700
5.815000	-7.917650	317.236000	31.017100	0.229375	0.000000	-1.420620	-27.128800	0.134165	9.486990	3.369300	336.219000	-38.281400	0.235977	0.000000	-0.987840	28.461900	-5.190240	12.811400
5.820000	-7.261820	314.097000	31.055500	0.228522	0.000000	-1.420850	-26.783600	0.173254	9.124680	3.145760	336.209000	-38.010600	0.235375	0.000000	-0.987172	28.240700	-5.185830	12.601800
5.825000	-6.955990	314.442000	30.803900	0.227647	0.000000	-1.421080	-26.741200	0.254342	8.859680	2.571740	336.399000	-37.691500	0.235255	0.000000	-0.987777	28.471300	-5.124030	12.558300
5.830000	-6.225940	314.406000	31.062000	0.227009	0.000000	-1.420690	-26.856500	0.390628	8.665720	2.581050	338.820000	-37.324300	0.235168	0.000000	-0.987632	28.627500	-5.150420	12.603600
5.835000	-5.697040	314.214000	30.752300	0.226309	0.000000	-1.421250	-26.662900	0.529923	8.445020	2.828800	340.985000	-37.438600	0.234830	0.000000	-0.987162	28.646500	-5.132990	12.557100
5.840000	-4.982000	316.045000	30.587300	0.226125	0.000000	-1.422130	-26.534100	0.611850	8.433530	3.589410	343.947000	-38.003800	0.234445	0.000000	-0.986963	28.814400	-5.181230	12.531100
5.845000	-4.909760	316.423000	30.171700	0.225082	0.000000	-1.422850	-26.340100	0.682734	8.112600	4.101440	343.576000	-38.672300	0.234007	0.000000	-0.987393	28.920700	-5.297510	12.389300
5.850000	-5.082920	318.441000	29.678800	0.224831	0.000000	-1.422400	-26.651200	0.786887	8.088740	4.477800	344.521000	-38.499900	0.233865	0.000000	-0.987102	28.893600	-5.322740	12.365600
5.855000	-5.624190	318.284000	29.472800	0.224790	0.000000	-1.422580	-26.584100	0.727253	8.068750	4.373930	345.001000	-38.321400	0.233359	0.000000	-0.987008	28.904100	-5.292210	12.197900
5.860000	-6.267100	319.449000	29.402700	0.224736	0.000000	-1.423290	-26.460700	0.742472	8.084750	4.693600	344.876000	-38.286700	0.233239	0.000000	-0.987057	28.904700	-5.341800	12.154000
5.865000	-6.818990	319.633000	29.194000	0.223755	0.000000	-1.423140	-26.527800	0.748577	7.776340	4.748770	346.343000	-38.151200	0.233106	0.000000	-0.987136	29.054100	-5.391560	12.154900
5.870000	-6.853980	318.171000	29.004900	0.223290	0.000000	-1.423420	-26.317300	0.771120	7.593740	4.828360	349.122000	-37.895600	0.232377	0.000000	-0.986414	29.035800	-5.388720	11.977700
5.875000	-6.856900	317.481000	28.881400	0.223324	0.000000	-1.424860	-25.805200	0.816366	7.591230	4.685020	351.242000	-38.299800	0.232249	0.000000	-0.986665	29.302100	-5.481240	12.017000
5.880000	-6.802340	316.350000	28.969700	0.222404	0.000000	-1.424880	-25.708100	1.001920	7.289260	4.892120	354.371000	-38.815500	0.231534	0.000000	-0.986350	29.449400	-5.517220	11.868400
5.885000	-6.559480	317.445000	28.287100	0.222017	0.000000	-1.425800	-25.504000	1.013470	7.181820	5.151670	353.629000	-39.185000	0.231750	0.000000	-0.986735	29.517900	-5.579080	11.936100
5.890000	-6.515660	316.874000	28.190400	0.221586	0.000000	-1.425590	-25.524500	1.115480	7.039890	5.578890	353.231000	-39.798100	0.230905	0.000000	-0.986550	29.411400	-5.622290	11.636000
5.895000	-6.154030	317.817000	28.185500	0.221314	0.000000	-1.426060	-25.450000	1.171510	6.974620	5.940900	351.958000	-39.670600	0.230551	0.000000	-0.986652	29.334500	-5.653030	11.470300
5.900000	-6.486840	318.920000	28.012700	0.220972	0.000000	-1.425830	-25.617800	1.326750	6.902220	5.347620	352.118000	-39.294500	0.230099	0.000000	-0.986042	29.143700	-5.630740	11.309100
5.905000	-6.689710	319.318000	27.341100	0.220174	0.000000	-1.426580	-25.410900	1.380460	6.652850	4.197740	349.393000	-38.570100	0.230249	0.000000	-0.985966	28.910200	-5.623450	11.280000
5.910000	-6.831700	318.740000	26.930200	0.219857	0.000000	-1.426100	-25.521700	1.474470	6.545180	3.362320	348.891000	-37.276100	0.230172	0.000000	-0.985171	28.607000	-5.555370	11.210800
5.915000	-6.425230	318.930000	26.928300	0.219699	0.000000	-1.427010	-25.245700	1.567220	6.502520	3.199320	347.037000	-36.642400	0.229764	0.000000	-0.985317	28.508100	-5.559760	11.003500
5.920000	-6.417840	318.373000	27.104700	0.218960	0.000000	-1.426770	-25.278400	1.593350	6.259000	2.970360	347.968000	-36.452100	0.230068	0.000000	-0.984476	28.296300	-5.530360	11.131300
5.925000	-6.257430	319.454000	26.694000	0.217866	0.000000	-1.427160	-25.235500	1.630910	5.924630	2.835590	348.529000	-36.543000	0.229775	0.000000	-0.984925	28.501200	-5.535720	11.047700
5.930000	-6.565350	317.259000	26.430400	0.217918	0.000000	-1.427940	-24.819900	1.724890	5.910390	2.605420	347.598000	-36.490500	0.229535	0.000000	-0.984628	28.325700	-5.559220	10.940700
5.935000	-6.635740	316.153000	26.841400	0.217453	0.000000	-1.428020	-24.711300	1.693620	5.745250	2.952410	345.206000	-36.871400	0.229133	0.000000	-0.984524	28.088100	-5.520680	10.735500
5.940000	-6.431530	315.228000	27.336800	0.216862	0.000000	-1.428040	-24.632100	1.756170	5.551190	3.316140	344.651000	-36.519300	0.228826	0.000000	-0.983984	27.849900	-5.594620	10.610700
5.945000	-6.480870	316.156000	27.387400	0.216651	0.000000	-1.428350	-24.608200	1.877540	5.510020	3.460020	343.193000	-36.304100	0.228561	0.000000	-0.984754	27.993200	-5.632820	10.477400
5.950000	-6.480860	318.212000	27.847700	0.216163	0.000000	-1.428950	-24.575300	1.890070	5.391760	3.566140	342.288000	-35.587900	0.228154	0.000000	-0.984530	27.839900	-5.696360	10.303000
5.955000	-6.456890	317.109000	28.390700	0.215676	0.000000	-1.428690	-24.573300	1.953220	5.230330	3.111930	342.477000	-35.391600	0.228095	0.000000	-0.983849	27.630400	-5.679210	10.285500
5.960000	-5.587160	318.398000	28.920500	0.214652	0.000000	-1.429620	-24.368700	2.011040	4.925220	3.404340	339.918000	-34.503900	0.227575	0.000000	-0.984299	27.571400	-5.672920	10.017500
5.965000	-4.586420	318.539000	29.168500	0.214551	0.000000	-1.429440	-24.430400	2.180450	4.905650	3.719620	339.720000	-34.380800	0.227264	0.000000	-0.983686	27.340400	-5.787630	9.912290
5.970000	-4.411540	321.320000	29.577000	0.214113	0.000000	-1.429500	-24.624300	2.286480	4.814680	4.580800	340.281000	-34.277200	0.227208	0.000000	-0.983888	27.437700	-5.888560	9.907990
5.975000	-4.574070	324.303000	29.358800	0.214287	0.000000	-1.430010	-24.688900	2.319030	4.912670	4.945090	341.008000	-34.201200	0.227083	0.000000	-0.983945	27.509300	-5.929200	9.883040
5.980000	-4.348230	325.040000	29.352500	0.213832	0.000000	-1.429940	-24.764500	2.418530	4.780840	4.971330	341.734000	-34.480500	0.226442	0.000000	-0.983216	27.318800	-5.931910	9.686410
5.985000	-3.981420	323.738000	29.344700	0.213180	0.000000	-1.430320	-24.538000	2.476670	4.553580	5.497550	341.385000	-33.681400	0.226610	0.000000	-0.983901	27.513500	-6.066980	9.727200
5.990000	-3.402230	324.650000	29.198400	0.212909	0.000000	-1.430700	-24.480800	2.545810	4.476880	6.048740	339.547000	-33.211100	0.226029	0.000000	-0.983953	27.372000	-6.094110	9.470740
5.995000	-3.170580	324.244000	29.145300	0.212654	0.000000	-1.430760	-24.426600	2.541240	4.385890	5.949880	338.972000	-33.253700	0.225719	0.000000	-0.983496	27.173000	-6.057360	9.349110
6.000000	-2.771260	323.833000	28.862100	0.211859	0.000000	-1.430860	-24.359400	2.592290	4.120570	5.795080	337.381000	-32.433700	0.226131	0.000000	-0.983324	26.988200	-6.119260	9.440970
6.005000	-2.581620	323.455000	28.905300	0.211443	0.000000	-1.431470	-24.132700	2.685560	3.988040	5.809920	334.792000	-31.989500	0.225637	0.000000	-0.983214	26.741700	-6.172020	9.206520
6.010000	-2.962260	319.364000	28.905000	0.210688	0.000000	-1.431080	-23.957300	2.708870	3.706460	6.316220	334.635000	-31.692700	0.225309	0.000000	-0.983022	26.654700	-6.244190	9.088700
6.015000	-2.423370	322.174000	29.176700	0.210821	0.000000	-1.432400	-23.736000	2.650300	3.770840	6.337070	331.708000	-31.375800	0.225491	0.000000	-0.983312	26.516000	-6.212870	9.070770
6.020000	-2.821790	321.425000	29.049200	0.209861	0.000000	-1.432730	-23.578500	2.639120	3.452500	5.637560	331.910000	-30.670200	0.225831	0.000000	-0.983814	26.711300	-6.240610	9.181450
6.025000	-2.985470	319.969000	29.411900	0.210297	0.000000	-1.432910	-23.416800	2.642040	3.585560	5.689320	331.893000	-30.043000	0.225221	0.000000	-0.983070	26.462300	-6.259250	8.964640
6.030000	-2.989810	319.782000	29.279100	0.209607	0.000000	-1.432880	-23.412000	2.682550	3.363450	5.025570	328.984000	-29.521300	0.225233	0.000000	-0.983070	26.240300	-6.300350	8.897460
6.035000	-3.229360	318.871000	28.650300	0.208966	0.000000	-1.434030	-22.980700	2.784230	3.153070	4.697770	327.906000	-28.606800	0.225328	0.000000	-0.983666	26.355900	-6.275050	8.882780
6.040000	-2.320970	317.878000	28.172300	0.208506	0.000000	-1.434080	-22.886600	2.780880	2.986320	4.790420	325.887000	-28.156200	0.225292	0.000000	-0.983273	26.063700	-6.214870	8.807650
6.045000	-2.076510	315.299000	28.347200	0.208081	0.000000	-1.434430	-22.585400	2.773820	2.831300	4.663120	323.714000	-27.750900	0.224529	0.000000	-0.982907	25.772200	-6.265510	8.503800
6.050000	-1.634480	315.629000	27.925400	0.207419	0.000000	-1.434960	-22.440600	2.920530	2.628710	4.298060	323.875000	-27.606400	0.223982	0.000000	-0.982884	25.784900	-6.268550	8.328730
6.055000	-1.865290	314.903000	27.710100	0.207247	0.000000	-1.435220	-22.306200	2.837090	2.561180	4.220810	321.857000	-27.412700	0.224739	0.000000	-0.983138	25.706400	-6.266840	8.525060
6.060000	-1.260990	311.903000	27.602400	0.206351	0.000000	-1.435440	-22.019200	2.904230	2.261320	4.661570	322.377000	-27.476400	0.224133	0.000000	-0.982965	25.682800	-6.344110	8.345250
6.065000	-0.847518	312.411000	27.816500	0.205832	0.000000	-1.435160	-22.139700	2.863060	2.096550	4.604440	323.148000	-27.845800	0.224076	0.000000	-0.982351	25.545900	-6.436630	8.361180
6.070000	-0.408702	313.721000	27.765800	0.206019	0.000000	-1.436050	-21.949900	3.048260	2.175310	5.176200	323.676000	-28.583400	0.224287	0.000000	-0.982900	25.752400	-6.547480	8.463980
6.075000	-0.459681	312.422000	27.255500	0.205540	0.000000	-1.435470	-22.040400	3.017240	2.010130	5.028260	323.302000	-29.001000	0.223837	0.000000	-0.982733	25.671600	-6.534210	8.318880
6.080000	-0.598334	311.122000	26.947700	0.205150	0.000000	-1.435790	-21.849200	3.105780	1.886890	5.346070	323.085000	-29.090200	0.224391	0.000000	-0.982331	25.518000	-6.523520	8.493320
6.085000	-0.369363	309.445000	26.121600	0.204395	0.000000	-1.436770	-21.427100	3.064460	1.630610	5.971150	321.275000	-29.065900	0.224234	0.000000	-0.982301	25.351100	-6.555380	8.399640
6.090000	-1.008200	308.169000	25.817900	0.204287	0.000000	-1.436430	-21.449000	3.173770	1.602090	6.100690	321.252000	-29.069900	0.223925	0.000000	-0.981698	25.151300	-6.658580	8.307960
